<svg width="1280" height="720" viewBox="0 0 1280 720" fill="none" xmlns="http://www.w3.org/2000/svg">
  <rect width="1280" height="720" rx="28" fill="url(#paint0_radial_1_2)" />
  <path
    d="M128 192C224 272 256 224 320 256C384 288 384 384 448 416C512 448 608 352 672 384C736 416 768 512 832 544C896 576 960 544 1024 576C1088 608 1120 672 1184 640"
    stroke="url(#paint1_linear_1_2)"
    stroke-width="3"
    stroke-linecap="round"
  />
  <g opacity="0.55">
    <path d="M192 144C256 208 320 144 384 208" stroke="url(#paint2_linear_1_2)" stroke-width="2" />
    <path d="M512 304C576 368 640 304 704 368" stroke="url(#paint2_linear_1_2)" stroke-width="2" />
    <path d="M832 464C896 528 960 464 1024 528" stroke="url(#paint2_linear_1_2)" stroke-width="2" />
    <path d="M384 432C448 496 512 432 576 496" stroke="url(#paint2_linear_1_2)" stroke-width="2" />
  </g>
  <circle cx="320" cy="216" r="6" fill="#60A5FA" />
  <circle cx="512" cy="312" r="6" fill="#60A5FA" />
  <circle cx="896" cy="520" r="6" fill="#60A5FA" />
  <circle cx="1080" cy="600" r="6" fill="#C084FC" />
  <defs>
    <radialGradient id="paint0_radial_1_2" cx="0" cy="0" r="1" gradientUnits="userSpaceOnUse" gradientTransform="translate(256 96) rotate(35.2269) scale(1166.07 1537.64)">
      <stop stop-color="#1E3A8A" />
      <stop offset="0.35" stop-color="#0F172A" />
      <stop offset="1" stop-color="#020617" />
    </radialGradient>
    <linearGradient id="paint1_linear_1_2" x1="128" y1="192" x2="1184" y2="640" gradientUnits="userSpaceOnUse">
      <stop stop-color="#93C5FD" />
      <stop offset="0.52" stop-color="#6366F1" />
      <stop offset="1" stop-color="#C084FC" />
    </linearGradient>
    <linearGradient id="paint2_linear_1_2" x1="192" y1="144" x2="1024" y2="528" gradientUnits="userSpaceOnUse">
      <stop stop-color="#3B82F6" stop-opacity="0.6" />
      <stop offset="1" stop-color="#C084FC" stop-opacity="0.7" />
    </linearGradient>
  </defs>
</svg>
